<svg id="Layer_4" data-name="Layer 4" xmlns="http://www.w3.org/2000/svg" viewBox="0 0 588 311"><defs><style>.cls-1{fill:#11111b;}.cls-2{fill:#65619c;}</style></defs><polygon class="cls-1" points="588 46.3 588 264.7 541.2 311.5 322.8 311.5 276 264.7 276 46.3 322.8 -0.5 541.2 -0.5 588 46.3"/><path class="cls-2" d="M424.44,88.46l-20.1-17.82H329.47L360.8,102h32.3v37.82H360.58l-15.77,15.77,15.67,15.67H393.1V209H360.8l-31.33,31.32h74.87l20.1-17.71v-52.3l-12-14.8,12-14.9Z"/><path class="cls-2" d="M534.53,88.46l-20.1-17.82H459.66l-20.1,17.82v52.19l12,14.9-12,14.8v52.3l20.1,17.71h54.77l20.1-17.71v-52.3l-12.21-14.8,12.21-14.9ZM503.2,140.65l-16.1,14.8,16.1,14.9V209H470.9V170.35l16.2-14.9-16.2-14.8V102h32.3Z"/><path class="cls-1" d="M.38,71H67.61L94.94,95.31v44.54l-16,15.49,16,15.81v44.43L67.61,240H.38Zm55.4,137.8,8-7.1V171.15l-16-15.7,16-15.6V109.3l-8-7.1H31.58v37.65l16.13,15.6-16.13,15.7V208.8Z"/><path class="cls-1" d="M141.2,240H110V71h31.2Z"/><path class="cls-1" d="M250.81,95.31v51.42l-27.32,24.42h-36V240H156.26V71h67.23ZM212.19,140l7.43-7.21V109.08l-7.53-6.88H187.45V140Z"/></svg>