<svg id="Layer_4" data-name="Layer 4" xmlns="http://www.w3.org/2000/svg" viewBox="0 0 500 500"><defs><style>.cls-1{fill:#65619c;}.cls-2{fill:#11111b;}</style></defs><polygon class="cls-1" points="500 75 500 425 425 500 75 500 0 425 0 75 75 0 425 0 500 75"/><path class="cls-2" d="M237.88,142.57,205.68,114h-120l50.21,50.21h51.76v60.6H135.55l-25.27,25.28,25.1,25.1h52.28v60.6H135.9L85.69,386h120l32.2-28.39V273.8l-19.22-23.71,19.22-23.89Z"/><path class="cls-2" d="M414.31,142.57,382.1,114H294.32l-32.2,28.57V226.2l19.22,23.89L262.12,273.8v83.81L294.32,386H382.1l32.21-28.39V273.8l-19.56-23.71,19.56-23.89ZM364.1,226.2l-25.8,23.71,25.8,23.89v62H312.34v-62l26-23.89-26-23.71v-62H364.1Z"/></svg>